# xmcd
#
# Track frame offsets:
#	150
#	13438
#	34475
#	53687
#	70042
#	92782
#	114115
#	130637
#	151200
#	171685
#	188225
#	200250
#	222817
#
# Disc length: 3194 seconds
# Revision: 1
# Processed by: cddbd v1.5.2PL0 Copyright (c) Steve Scherf et al.
# Submitted via: dBpowerAMP V12.0
#
DISCID=b30c780d
DTITLE=Big Creek Slim - Hope for My Soul
DYEAR=2015
DGENRE=Blues
TTITLE0=On My Way
TTITLE1=Mama Don't Allow
TTITLE2=Wrath of Grapes
TTITLE3=Catfish Blues
TTITLE4=Got What It Takes
TTITLE5=Hobo Blues
TTITLE6=Hope for My Soul
TTITLE7=Will the Circle Be Unbroken
TTITLE8=Spoonful
TTITLE9=Down the Dirt Road Blues
TTITLE10=Rubby Rub
TTITLE11=Big Road Blues
TTITLE12=I've Got a Home
EXTD=
EXTT0=
EXTT1=
EXTT2=
EXTT3=
EXTT4=
EXTT5=
EXTT6=
EXTT7=
EXTT8=
EXTT9=
EXTT10=
EXTT11=
EXTT12=
PLAYORDER=
